<?xml version="1.0" encoding="iso-8859-1"?>
<!-- Generator: Adobe Illustrator 19.0.0, SVG Export Plug-In . SVG Version: 6.00 Build 0)  -->
<svg version="1.1" id="Layer_1" xmlns="http://www.w3.org/2000/svg" xmlns:xlink="http://www.w3.org/1999/xlink" x="0px" y="0px"
	 viewBox="0 0 512 512" style="enable-background:new 0 0 512 512;" xml:space="preserve">
<g>
	<path style="fill:#2C8CF4;" d="M398.797,511.268c0,0,61.249-9.423,63.604-71.85c2.355-62.427,2.356-160.19,7.068-181.392
		s8.245-61.249,9.423-82.451c1.177-21.202,1.177-109.542-44.759-143.701S337.549-6.997,313.991,8.316
		c-23.558,15.313-31.802,57.716-31.802,83.629S297.5,208.554,308.102,233.29c10.602,24.736,20.024,77.74,10.6,129.565
		C309.278,414.681,284.545,521.868,398.797,511.268z"/>
	<path style="fill:#2C8CF4;" d="M113.2,511.268c0,0-61.249-9.423-63.604-71.85c-2.355-62.427-2.356-160.191-7.068-181.392
		s-8.245-61.249-9.423-82.451c-1.178-21.202-1.178-109.542,44.759-143.701S174.45-6.997,198.007,8.316s31.802,57.716,31.802,83.629
		s-15.312,116.609-25.913,141.345c-10.602,24.736-20.024,77.74-10.6,129.565C202.72,414.681,227.454,521.868,113.2,511.268z"/>
</g>
<g>
	<path style="fill:#1780CE;" d="M344.891,362.855c9.423-51.827,0-104.831-10.6-129.567c-10.6-24.736-25.913-115.431-25.913-141.345
		c0-24.505,5.163-52.978,20.408-72.825c8.115-10.566,19.517-16.263,32.528-18.211c-19.506-2.505-36.353,0.277-47.323,7.407
		c-21.629,14.059-28.684,45.313-31.056,69.223c-2.065,20.829,1.266,41.781,4.402,62.34c3.566,23.371,7.777,46.74,13.491,69.69
		c1.988,7.983,4.022,16.137,7.271,23.72c10.6,24.736,20.024,77.74,10.6,129.567c-9.384,51.609-33.933,158.101,78.69,148.522
		C315.082,502.989,336.318,410.012,344.891,362.855z"/>
	<path style="fill:#1780CE;" d="M75.785,439.418c-2.356-62.427-2.356-160.19-7.068-181.392c-4.711-21.202-8.245-61.249-9.423-82.451
		c-0.608-10.936-0.337-21.949,0.393-32.869c1.114-16.642,3.487-33.275,7.821-49.397c6.277-23.345,17.305-46.432,36.766-61.525
		c4.685-3.634,9.658-6.882,14.741-9.928c10.658-6.389,22.007-11.673,33.84-15.489c7.821-2.523,15.863-4.408,24.018-5.455
		c-26.398-3.951-64.06,4.977-99.009,30.966C31.929,66.035,31.929,154.375,33.107,175.577c1.178,21.202,4.711,61.249,9.423,82.451
		s4.711,118.965,7.068,181.392s63.604,71.851,63.604,71.851c10.294,0.954,19.444,0.941,27.594,0.109
		c-0.472-0.04-0.928-0.065-1.405-0.109C139.389,511.268,78.14,501.845,75.785,439.418z"/>
</g>
<g>
	<path style="fill:#F7B239;" d="M482.912,234.624L369.035,122.401l-3.257-27.487c-0.586-4.939-5.072-8.461-10.002-7.882
		c-4.939,0.586-8.468,5.063-7.882,10.002l3.283,27.705l-66.227,117.506c-15.805,28.044-9.604,63.682,14.744,84.74l50.712,43.858
		c3.762,3.254,9.448,2.84,12.7-0.921s2.841-9.448-0.921-12.7l-50.712-43.858c-17.894-15.475-22.45-41.667-10.834-62.277
		l61.889-109.812L470.27,247.45c17.563,17.307,19.776,45.327,5.149,65.177l-35.677,48.419c-2.949,4.004-2.096,9.64,1.908,12.591
		c1.608,1.184,3.48,1.757,5.335,1.757c2.764,0,5.491-1.269,7.256-3.664l35.677-48.419
		C509.823,296.301,506.81,258.174,482.912,234.624z"/>
	<path style="fill:#F7B239;" d="M160.82,124.739l3.283-27.706c0.586-4.937-2.944-9.416-7.882-10.002
		c-4.936-0.579-9.414,2.944-10,7.882l-3.258,27.488L29.087,234.624c-23.896,23.55-26.909,61.678-7.007,88.688l35.677,48.419
		c1.765,2.395,4.493,3.664,7.256,3.664c1.855,0,3.726-0.572,5.335-1.757c4.004-2.949,4.857-8.587,1.908-12.591l-35.677-48.419
		c-14.627-19.85-12.412-47.87,5.149-65.177l107.741-106.177l61.89,109.812c11.616,20.609,7.058,46.801-10.834,62.277l-50.712,43.858
		c-3.761,3.254-4.174,8.939-0.921,12.7s8.939,4.172,12.7,0.921l50.712-43.858c24.348-21.058,30.549-56.696,14.744-84.74
		L160.82,124.739z"/>
</g>
<g>
</g>
<g>
</g>
<g>
</g>
<g>
</g>
<g>
</g>
<g>
</g>
<g>
</g>
<g>
</g>
<g>
</g>
<g>
</g>
<g>
</g>
<g>
</g>
<g>
</g>
<g>
</g>
<g>
</g>
</svg>
