<?xml version="1.0" encoding="iso-8859-1"?>
<!-- Generator: Adobe Illustrator 19.0.0, SVG Export Plug-In . SVG Version: 6.00 Build 0)  -->
<svg version="1.1" id="Layer_1" xmlns="http://www.w3.org/2000/svg" xmlns:xlink="http://www.w3.org/1999/xlink" x="0px" y="0px"
	 viewBox="0 0 512 512" style="enable-background:new 0 0 512 512;" xml:space="preserve">
<path style="fill:#89BBE4;" d="M488.97,125.456h-94.896c-9.587,0-18.657-4.354-24.655-11.834l-29.33-36.586
	c-6.552-8.174-16.46-12.93-26.937-12.93H198.845c-10.476,0-20.384,4.756-26.935,12.93l-29.329,36.586
	c-5.998,7.48-15.066,11.834-24.656,11.834H23.03c-12.718,0-23.03,10.312-23.03,23.03v276.376c0,12.72,10.312,23.031,23.03,23.031
	h465.94c12.718,0,23.03-10.312,23.03-23.031V148.487C512,135.768,501.688,125.456,488.97,125.456z"/>
<g>
	<path style="opacity:0.2;fill:#145587;enable-background:new    ;" d="M369.419,113.622l-29.33-36.586
		c-6.553-8.173-16.46-12.93-26.937-12.93H198.845c-10.475,0-20.384,4.756-26.935,12.93l-29.329,36.586
		c-5.998,7.48-15.066,11.834-24.655,11.834h276.146C384.486,125.456,375.417,121.103,369.419,113.622z"/>
	<circle style="opacity:0.2;fill:#145587;enable-background:new    ;" cx="256.003" cy="309.032" r="114.594"/>
</g>
<circle style="fill:#F9C526;" cx="256.003" cy="282.137" r="114.594"/>
<circle style="fill:#384148;" cx="256.003" cy="282.137" r="75.787"/>
<path style="opacity:0.2;enable-background:new    ;" d="M256,206.351c-41.856,0-75.787,33.931-75.787,75.787
	c0,3.002,0.194,5.957,0.534,8.868c4.393-37.675,36.4-66.92,75.254-66.92s70.86,29.245,75.254,66.92
	c0.339-2.91,0.534-5.865,0.534-8.868C331.787,240.282,297.856,206.351,256,206.351z"/>
<path style="fill:#54B8AC;" d="M55.183,393.394H0V191.309h55.183c9.117,0,16.51,7.392,16.51,16.51v169.063
	C71.693,386.001,64.302,393.394,55.183,393.394z"/>
<circle style="fill:#ACDFEA;" cx="450.418" cy="194.438" r="22.007"/>
<g>
	<path style="fill:#FFFFFF;" d="M418.404,393.394c-9.794,0-17.734-7.94-17.734-17.734c0-9.794,7.94-17.734,17.734-17.734h36.288
		c9.795,0,17.734,7.94,17.734,17.734c0,9.794-7.939,17.734-17.734,17.734H418.404z"/>
	<circle style="fill:#FFFFFF;" cx="279.787" cy="257.15" r="19.311"/>
</g>
<path style="fill:#384148;" d="M478.447,125.456v-16.508c0-5.051-4.095-9.146-9.147-9.146h-54.744c-5.051,0-9.147,4.095-9.147,9.146
	v16.508H478.447z"/>
<rect x="405.405" y="113.765" style="opacity:0.3;enable-background:new    ;" width="73.032" height="11.691"/>
<path style="fill:#FFFFFF;" d="M297.244,104.431h-82.489c-4.703,0-8.515-3.812-8.515-8.515c0-4.702,3.811-8.515,8.515-8.515h82.489
	c4.703,0,8.515,3.812,8.515,8.515C305.759,100.619,301.948,104.431,297.244,104.431z"/>
<g>
</g>
<g>
</g>
<g>
</g>
<g>
</g>
<g>
</g>
<g>
</g>
<g>
</g>
<g>
</g>
<g>
</g>
<g>
</g>
<g>
</g>
<g>
</g>
<g>
</g>
<g>
</g>
<g>
</g>
</svg>
