<?xml version="1.0" encoding="iso-8859-1"?>
<!-- Generator: Adobe Illustrator 19.0.0, SVG Export Plug-In . SVG Version: 6.00 Build 0)  -->
<svg version="1.1" id="Layer_1" xmlns="http://www.w3.org/2000/svg" xmlns:xlink="http://www.w3.org/1999/xlink" x="0px" y="0px"
	 viewBox="0 0 512.002 512.002" style="enable-background:new 0 0 512.002 512.002;" xml:space="preserve">
<path style="fill:#D5681E;" d="M300.812,181.082c-34.691-23.009-79.85-23.626-115.088-1.817c-0.01,0.006-0.02,0.013-0.03,0.019
	c-1.11,0.688-2.21,1.401-3.3,2.133c-0.314,0.21-0.626,0.423-0.939,0.637c-0.929,0.639-1.854,1.289-2.767,1.96
	c-0.47,0.345-0.935,0.703-1.4,1.057c-0.485,0.369-0.968,0.743-1.449,1.123c-0.928,0.731-1.844,1.48-2.754,2.246
	c-0.3,0.253-0.601,0.504-0.898,0.76c-0.623,0.537-1.242,1.08-1.855,1.634c-0.018,0.017-0.036,0.032-0.053,0.049
	c-0.839,0.759-1.679,1.516-2.5,2.306c-5.231,5.041-9.835,10.479-13.812,16.222c-7.536,10.883-19.299,17.967-32.401,19.859
	c-29.091,4.203-57.129,17.424-79.595,39.675c-55.477,54.944-56.036,145.266-1.213,200.862c0.238,0.241,0.483,0.475,0.722,0.714
	c0,0,0.473,0.484,0.714,0.722c55.595,54.824,145.918,54.264,200.862-1.213c22.25-22.465,35.471-50.503,39.675-79.594
	c1.892-13.101,8.977-24.864,19.859-32.401c5.742-3.977,11.182-8.581,16.222-13.812c0.79-0.821,1.548-1.66,2.306-2.5
	c0.016-0.018,0.032-0.036,0.049-0.053c0.554-0.614,1.097-1.233,1.634-1.855c0.257-0.298,0.507-0.599,0.76-0.898
	c0.765-0.908,1.516-1.825,2.246-2.754c0.378-0.481,0.753-0.964,1.123-1.449c0.354-0.466,0.712-0.929,1.057-1.4
	c0.672-0.914,1.321-1.838,1.96-2.767c0.213-0.313,0.427-0.624,0.637-0.938c0.732-1.09,1.445-2.189,2.133-3.3
	c0.006-0.01,0.013-0.02,0.019-0.03c21.809-35.238,21.192-80.397-1.817-115.088L300.812,181.082z"/>
<path style="fill:#FF9933;" d="M315.866,196.136l-15.054-15.054c-34.691-23.009-79.85-23.626-115.088-1.817
	c-0.01,0.006-0.02,0.013-0.03,0.019c-1.11,0.688-2.21,1.401-3.3,2.133c-0.314,0.21-0.626,0.422-0.938,0.637
	c-0.929,0.639-1.854,1.289-2.767,1.96c-0.47,0.345-0.935,0.703-1.401,1.057c-0.485,0.369-0.968,0.743-1.449,1.122
	c-0.928,0.731-1.844,1.48-2.754,2.246c-0.3,0.253-0.601,0.504-0.898,0.76c-0.623,0.536-1.242,1.08-1.855,1.634
	c-0.018,0.017-0.036,0.032-0.053,0.049c-0.839,0.759-1.679,1.516-2.5,2.306c-5.231,5.04-9.835,10.479-13.812,16.222
	c-7.536,10.882-19.299,17.967-32.401,19.859c-29.091,4.203-57.129,17.424-79.595,39.675
	c-55.477,54.944-56.036,145.266-1.213,200.862c0.238,0.241,0.483,0.475,0.722,0.714L315.866,196.136z"/>
<rect x="97.413" y="348.926" transform="matrix(-0.7071 -0.7071 0.7071 -0.7071 -6.2001 726.647)" style="fill:#983300;" width="99.962" height="31.362"/>
<rect x="300.64" y="17.473" transform="matrix(0.7071 0.7071 -0.7071 0.7071 225.8607 -178.8102)" style="fill:#344C81;" width="56.266" height="331.519"/>
<rect x="304.756" y="7.537" transform="matrix(0.7071 0.7071 -0.7071 0.7071 215.9203 -174.6837)" style="fill:#6CAFC9;" width="28.133" height="331.519"/>
<polygon style="fill:#333366;" points="489.825,105.045 512.002,82.869 494.46,65.328 446.674,17.542 429.133,0.001 406.957,22.177 
	425.509,40.73 415.411,51.793 396.376,32.758 374.2,54.934 394.247,74.981 384.15,86.042 363.62,65.514 341.444,87.69 
	362.985,109.231 402.771,149.017 424.312,170.558 446.489,148.382 425.96,127.852 437.021,117.755 457.068,137.802 479.246,115.626 
	460.21,96.591 471.272,86.493 "/>
<polygon style="fill:#344C81;" points="470.567,41.435 446.674,17.542 362.985,109.231 382.878,129.124 "/>
<circle style="fill:#333366;" cx="213.841" cy="298.164" r="43.238"/>
<path style="fill:#344C81;" d="M244.415,267.587c-16.885-16.885-44.26-16.885-61.145,0s-16.885,44.26,0,61.145L244.415,267.587z"/>
<g>
</g>
<g>
</g>
<g>
</g>
<g>
</g>
<g>
</g>
<g>
</g>
<g>
</g>
<g>
</g>
<g>
</g>
<g>
</g>
<g>
</g>
<g>
</g>
<g>
</g>
<g>
</g>
<g>
</g>
</svg>
