<?xml version="1.0" encoding="iso-8859-1"?>
<!-- Generator: Adobe Illustrator 19.0.0, SVG Export Plug-In . SVG Version: 6.00 Build 0)  -->
<svg version="1.1" id="Layer_1" xmlns="http://www.w3.org/2000/svg" xmlns:xlink="http://www.w3.org/1999/xlink" x="0px" y="0px"
	 viewBox="0 0 512 512" style="enable-background:new 0 0 512 512;" xml:space="preserve">
<path style="fill:#009245;" d="M479.918,48.676c0,0-50.089,31.964-111.875,31.964S256.168,66.33,256.168,48.676
	s50.089-31.964,111.875-31.964S479.918,48.676,479.918,48.676z"/>
<path style="fill:#8CC63F;" d="M360.052,32.694c44.698,0,83.162,16.688,101.08,25.942c11.853-5.543,18.785-9.959,18.785-9.959
	S429.83,16.713,368.043,16.713s-111.875,14.31-111.875,31.964c0,1.212,0.285,2.406,0.745,3.583
	C273.862,40.765,313.656,32.694,360.052,32.694z"/>
<path style="fill:#C1272D;" d="M8.027,392.294c0,61.787,49.932,111.875,111.719,111.875s111.719-50.089,111.719-111.875V368.32
	c0-44.134-35.412-79.911-79.545-79.911c-11.372,0-21.988,2.412-31.781,6.694c-9.794-4.282-20.71-6.694-32.082-6.694
	c-44.133,0-80.028,35.777-80.028,79.911v23.974H8.027z"/>
<path style="fill:#CD5257;" d="M151.918,288.409c-4.069,0-7.713,0.41-11.616,1.003c38.405,5.819,68.19,38.877,68.19,78.908v23.974
	c0,57.735-43.878,105.23-100.025,111.213c3.94,0.42,7.501,0.661,11.553,0.661c61.787,0,111.442-50.089,111.442-111.875v-23.974
	C231.464,324.186,196.052,288.409,151.918,288.409z"/>
<path style="fill:#57090C;" d="M90.118,288.409c4.069,0,6.962,0.41,10.864,1.003c-38.405,5.819-68.941,38.877-68.941,78.908v23.974
	c0,57.735,45.902,105.23,102.048,111.213c-3.94,0.42-9.035,0.661-13.087,0.661c-61.787,0-112.976-50.089-112.976-111.875v-23.974
	C8.027,324.186,45.985,288.409,90.118,288.409z"/>
<path style="fill:#C1272D;" d="M280.537,392.294c0,61.787,49.932,111.875,111.719,111.875s111.719-50.089,111.719-111.875V368.32
	c0-44.134-35.819-79.911-79.952-79.911c-11.372,0-22.191,2.412-31.985,6.694c-9.794-4.282-20.405-6.694-31.777-6.694
	c-44.133,0-79.723,35.777-79.723,79.911V392.294z"/>
<path style="fill:#CD5257;" d="M424.022,288.409c-4.069,0-8.553,0.41-12.456,1.003c38.405,5.819,67.35,38.877,67.35,78.908v23.974
	c0,57.735-43.24,105.23-99.387,111.213c3.94,0.42,8.226,0.661,12.279,0.661c61.787,0,112.167-50.089,112.167-111.875v-23.974
	C503.974,324.186,468.156,288.409,424.022,288.409z"/>
<path style="fill:#57090C;" d="M362.221,288.409c4.069,0,6.643,0.41,10.545,1.003c-38.405,5.819-69.26,38.877-69.26,78.908v23.974
	c0,57.735,46.018,105.23,102.164,111.213c-3.94,0.42-8.571,0.661-12.623,0.661c-61.787,0-112.511-50.089-112.511-111.875v-23.974
	C280.537,324.186,318.088,288.409,362.221,288.409z"/>
<g>
	<path style="fill:#FFFFFF;" d="M67.982,466.38c-22.168-14.855-35.404-39.343-35.404-66.489h15.662
		c0,21.926,10.639,41.438,28.461,53.381L67.982,466.38z"/>
	<path style="fill:#FFFFFF;" d="M112.437,480.035c-9.397,0-18.117-1.529-26.641-4.543l5.248-14.766
		c6.843,2.419,14.086,3.646,21.395,3.646v15.663H112.437z"/>
	<path style="fill:#FFFFFF;" d="M339.679,466.38c-22.169-14.857-35.403-39.343-35.403-66.489h15.661
		c0,21.926,10.639,41.438,28.461,53.381L339.679,466.38z"/>
	<path style="fill:#FFFFFF;" d="M383.903,480.035c-9.397,0-18.001-1.529-26.526-4.542l5.189-14.767
		c6.844,2.42,14.029,3.647,21.337,3.647V480.035z"/>
</g>
<path d="M423.761,280.578c-9.471,0-18.76,1.531-27.714,4.545c-4.128-23.465-11.574-46.361-22.114-67.689
	c-16.953-34.305-41.981-64.725-72.377-87.969l-38.771-29.648V69.018c21.718,13.253,64.58,19.454,105.257,19.454
	c63.345,0,113.964-31.839,116.088-33.194l10.344-6.601l-10.344-6.601c-2.124-1.356-52.743-33.195-116.087-33.195
	c-30.59,0-59.449,3.432-81.259,9.663c-9.905,2.83-17.905,6.091-23.998,9.763V0h-15.661v101.671l-36.345,27.794
	c-30.397,23.244-55.424,53.663-72.377,87.969c-10.548,21.342-17.996,44.255-22.123,67.737c-9.003-3.049-18.356-4.593-27.898-4.593
	c-48.338,0-87.664,39.361-87.664,87.742v23.974C0.718,458.3,54.347,512,120.267,512s119.55-53.7,119.55-119.706V368.32
	c0-48.38-39.314-87.742-87.638-87.742c-6.618,0-13.139,0.753-19.516,2.22c4.014-20.237,10.654-39.959,19.779-58.426
	c15.893-32.159,39.355-60.676,67.851-82.466l35.874-27.434l35.875,27.434c28.495,21.79,51.958,50.307,67.85,82.466
	c9.132,18.479,15.775,38.214,19.787,58.464c-6.445-1.495-13.044-2.258-19.746-2.258c-48.386,0-87.75,39.361-87.75,87.742v23.974
	C272.183,458.3,325.812,512,391.733,512s119.55-53.7,119.55-119.706V368.32C511.283,319.939,472.021,280.578,423.761,280.578z
	 M152.179,296.24c39.687,0,71.976,32.335,71.976,72.081v23.974c0,57.37-46.604,104.045-103.888,104.045
	S16.379,449.664,16.379,392.294V368.32c0-39.745,32.3-72.081,72.002-72.081c8.8,0,17.408,1.61,25.641,4.772
	c-0.758,6.837-1.245,13.702-1.434,20.572h-8.504v15.662h32.367v-15.662h-8.199c0.214-7.28,0.789-14.553,1.683-21.787
	C137.123,297.44,144.577,296.24,152.179,296.24z M291.087,33.604c20.451-5.843,47.781-9.061,76.957-9.061
	c41.305,0,77.603,15.1,95.622,24.133c-18.019,9.034-54.316,24.133-95.622,24.133c-29.175,0-56.506-3.218-76.957-9.061
	c-7.409-2.116-12.886-4.293-16.905-6.324h53.339V41.764h-56.667C274.985,39.25,281.387,36.375,291.087,33.604z M495.622,392.294
	c0,57.37-46.604,104.045-103.888,104.045s-103.888-46.674-103.888-104.045V368.32c0-39.745,32.339-72.081,72.089-72.081
	c7.695,0,15.226,1.224,22.475,3.617c0.89,7.215,1.45,14.467,1.668,21.727h-8.528v15.662h31.323v-15.662h-7.122
	c-0.194-6.892-0.681-13.778-1.443-20.636c8.183-3.122,16.728-4.708,25.453-4.708c39.624,0,71.86,32.335,71.86,72.081V392.294z"/>
<g>
</g>
<g>
</g>
<g>
</g>
<g>
</g>
<g>
</g>
<g>
</g>
<g>
</g>
<g>
</g>
<g>
</g>
<g>
</g>
<g>
</g>
<g>
</g>
<g>
</g>
<g>
</g>
<g>
</g>
</svg>
