<?xml version="1.0" encoding="iso-8859-1"?>
<!-- Generator: Adobe Illustrator 18.0.0, SVG Export Plug-In . SVG Version: 6.00 Build 0)  -->
<!DOCTYPE svg PUBLIC "-//W3C//DTD SVG 1.1//EN" "http://www.w3.org/Graphics/SVG/1.1/DTD/svg11.dtd">
<svg version="1.1" id="Capa_1" xmlns="http://www.w3.org/2000/svg" xmlns:xlink="http://www.w3.org/1999/xlink" x="0px" y="0px"
	 viewBox="0 0 375.963 375.963" style="enable-background:new 0 0 375.963 375.963;" xml:space="preserve">
<g>
	<g id="XMLID_7_">
		<g>
			<path style="fill:#E6E6E6;" d="M332.364,20.571c9.09,21.33,12.03,44.53,8.51,67.7c-4.04,26.59-16.23,50.69-35.24,69.71
				l-85.37,85.37l-7.5-7.5l81.51-81.51c34.73-34.74,48.69-85.2,36.98-132.67L332.364,20.571z"/>
			<path style="fill:#B3B3B3;" d="M318.574,34.351c6.7,39.64-6.1,80.57-34.91,109.38l-81.51,81.51l-37.24-37.23L318.574,34.351z"/>
			<path style="fill:#E29E30;" d="M214.964,259.261l7.88,7.89l-14.31,14.3l-68.53-68.53l14.31-14.3l60.64,60.64
				C214.954,259.261,214.954,259.261,214.964,259.261z"/>
			<path style="fill:#E29E30;" d="M170.804,264.941l-87.58,87.57c-5.28,5.29-12.31,8.2-19.79,8.2s-14.51-2.91-19.79-8.2l-1.82-1.82
				c-10.92-10.91-10.92-28.67,0-39.58l87.57-87.58L170.804,264.941z M137.324,264.521c0-4.14-3.36-7.5-7.5-7.5h-0.01
				c-4.14,0-7.49,3.36-7.49,7.5c0,4.14,3.36,7.5,7.5,7.5S137.324,268.661,137.324,264.521z M105.084,296.761
				c0-4.14-3.36-7.5-7.5-7.5h-0.01c-4.14,0-7.5,3.36-7.5,7.5c0,4.14,3.37,7.5,7.51,7.5S105.084,300.901,105.084,296.761z
				 M72.844,329.001c0-4.14-3.36-7.5-7.5-7.5h-0.01c-4.15,0-7.5,3.36-7.5,7.5c0,4.15,3.37,7.5,7.51,7.5
				S72.844,333.151,72.844,329.001z"/>
			<path style="fill:#4D4D4D;" d="M341.214,4.261c14,26.66,19.02,56.49,14.49,86.26c-4.52,29.78-18.17,56.77-39.46,78.06
				l-85.38,85.38l7.89,7.88c1.41,1.41,2.2,3.32,2.2,5.31c0,1.99-0.79,3.89-2.2,5.3l-24.91,24.91c-1.47,1.47-3.39,2.2-5.31,2.2
				c-1.92,0-3.84-0.73-5.3-2.2l-21.82-21.82l-87.58,87.58c-8.12,8.12-18.92,12.59-30.4,12.59s-22.28-4.47-30.4-12.59l-1.82-1.82
				c-16.76-16.76-16.76-44.04,0-60.8l298.05-298.05c1.69-1.69,4.07-2.47,6.43-2.12C338.054,0.691,340.104,2.151,341.214,4.261z
				 M340.874,88.271c3.52-23.17,0.58-46.37-8.51-67.7l-1.11,1.1c11.71,47.47-2.25,97.93-36.98,132.67l-81.51,81.51l7.5,7.5
				l85.37-85.37C324.644,138.961,336.834,114.861,340.874,88.271z M283.664,143.731c28.81-28.81,41.61-69.74,34.91-109.38
				l-153.66,153.66l37.24,37.23L283.664,143.731z M222.844,267.151l-7.88-7.89c-0.01,0-0.01,0-0.01,0l-60.64-60.64l-14.31,14.3
				l68.53,68.53L222.844,267.151z M83.224,352.511l87.58-87.57l-41.41-41.41l-87.57,87.58c-10.92,10.91-10.92,28.67,0,39.58
				l1.82,1.82c5.28,5.29,12.31,8.2,19.79,8.2S77.944,357.801,83.224,352.511z"/>
			<path style="fill:#4D4D4D;" d="M129.824,257.021c4.14,0,7.5,3.36,7.5,7.5c0,4.14-3.36,7.5-7.5,7.5s-7.5-3.36-7.5-7.5
				c0-4.14,3.35-7.5,7.49-7.5H129.824z"/>
			<path style="fill:#4D4D4D;" d="M97.584,289.261c4.14,0,7.5,3.36,7.5,7.5c0,4.14-3.36,7.5-7.5,7.5s-7.51-3.36-7.51-7.5
				c0-4.14,3.36-7.5,7.5-7.5H97.584z"/>
			<path style="fill:#4D4D4D;" d="M65.344,321.501c4.14,0,7.5,3.36,7.5,7.5c0,4.15-3.36,7.5-7.5,7.5s-7.51-3.35-7.51-7.5
				c0-4.14,3.35-7.5,7.5-7.5H65.344z"/>
		</g>
		<g>
		</g>
	</g>
</g>
<g>
</g>
<g>
</g>
<g>
</g>
<g>
</g>
<g>
</g>
<g>
</g>
<g>
</g>
<g>
</g>
<g>
</g>
<g>
</g>
<g>
</g>
<g>
</g>
<g>
</g>
<g>
</g>
<g>
</g>
</svg>
