<?xml version="1.0" encoding="iso-8859-1"?>
<!-- Generator: Adobe Illustrator 19.0.0, SVG Export Plug-In . SVG Version: 6.00 Build 0)  -->
<svg version="1.1" id="Layer_1" xmlns="http://www.w3.org/2000/svg" xmlns:xlink="http://www.w3.org/1999/xlink" x="0px" y="0px"
	 viewBox="0 0 496.182 496.182" style="enable-background:new 0 0 496.182 496.182;" xml:space="preserve">
<path style="fill:#4ABC96;" d="M0,248.091C0,111.063,111.074,0,248.094,0c137.012,0,248.088,111.063,248.088,248.091
	c0,137.012-111.076,248.091-248.088,248.091C111.074,496.182,0,385.103,0,248.091z"/>
<path style="fill:#E0DFDC;" d="M302.004,69.237c0,0-21.179,7.275-54.988,7.275c-33.811,0-54.988-7.275-54.988-7.275
	s-3.963,98.327,54.704,98.327S302.004,69.237,302.004,69.237z"/>
<path style="fill:#EFEDE6;" d="M387.512,170.091c-6.574-14.537-18.684-50.696-28.447-69.978
	c-8.449-16.688-57.061-30.879-57.061-30.879s-11.064,68.774-54.988,68.774c-43.925,0-54.988-68.774-54.988-68.774
	s-48.811,14.1-57.062,30.879c-9.198,18.706-21.226,54.964-27.935,69.899c0,0,3.648,5.412,13.314,15.078s20.127,14.269,20.127,14.269
	c7.869-13.088,15.836-24.723,15.836-24.723l12.883,101.455l-16.382,111c0,13.5,17.218,16.846,38.465,16.846h111.483
	c21.247,0,38.466-3.346,38.466-16.846l-16.383-111l12.883-101.454c0,0,8.119,11.858,16.061,25.098c0,0,9.563-4.311,20.229-14.311
	C384.68,175.424,387.512,170.091,387.512,170.091z"/>
<g>
	<path style="fill:#3F3F3F;" d="M328.692,78.987c-13.71-5.964-26.688-9.753-26.688-9.753s-1.58,95.498-54.988,116.559l0.074,77.471
		l30.001,29.468c10.5,3,47.749-16.641,47.749-16.641l12.883-101.454L328.692,78.987z"/>
	<path style="fill:#3F3F3F;" d="M165.237,78.987c13.711-5.964,26.688-9.753,26.688-9.753s1.579,95.498,54.988,116.559l-0.075,77.471
		l-30,29.468c-10.5,3-47.75-16.641-47.75-16.641l-12.882-101.454L165.237,78.987z"/>
</g>
<g>
	<path style="fill:#515151;" d="M175.907,74.677c9.085-3.418,16.018-5.443,16.018-5.443s1.579,95.498,54.988,116.559l-0.075,14.605
		c0,0-28.645-10.257-41.747-27C181.091,142.732,175.907,74.677,175.907,74.677z"/>
	<path style="fill:#515151;" d="M318.216,74.677c-9.085-3.418-16.018-5.443-16.018-5.443s-1.579,95.498-54.988,116.559l0.075,14.605
		c0,0,28.645-10.257,41.747-27C313.032,142.732,318.216,74.677,318.216,74.677z"/>
	<circle style="fill:#515151;" cx="247.091" cy="211.231" r="6"/>
	<circle style="fill:#515151;" cx="247.091" cy="229.731" r="6"/>
	<circle style="fill:#515151;" cx="247.091" cy="247.901" r="6"/>
</g>
<g>
</g>
<g>
</g>
<g>
</g>
<g>
</g>
<g>
</g>
<g>
</g>
<g>
</g>
<g>
</g>
<g>
</g>
<g>
</g>
<g>
</g>
<g>
</g>
<g>
</g>
<g>
</g>
<g>
</g>
</svg>
