<?xml version="1.0" encoding="iso-8859-1"?>
<!-- Generator: Adobe Illustrator 19.0.0, SVG Export Plug-In . SVG Version: 6.00 Build 0)  -->
<svg version="1.1" id="Layer_1" xmlns="http://www.w3.org/2000/svg" xmlns:xlink="http://www.w3.org/1999/xlink" x="0px" y="0px"
	 viewBox="0 0 511.42 511.42" style="enable-background:new 0 0 511.42 511.42;" xml:space="preserve">
<path style="fill:#5E2A41;" d="M511.42,246.737c0,18.69-11.988,34.354-28.858,39.722c-1.936,17.067-16.452,30.377-34.029,30.377
	h-93.727c10.922,17.623,17.229,38.388,17.229,60.591c0,16.359-3.409,32.29-9.971,46.968h45.24c18.852,0,34.191,15.339,34.191,34.203
	c0,18.852-15.339,34.203-34.191,34.203c0,0-156.626,0-157.02,0c-114.377,0-207.42-93.055-207.42-207.431V148.175
	c-0.012-0.162-0.012-0.336-0.012-0.51c0-17.414-14.145-31.919-31.525-32.313c-4.661-0.104-8.8-3.003-10.516-7.339
	c-1.716-4.336-0.661-9.275,2.667-12.545C17.16,82.077,35.27,74.703,54.459,74.703c42.701,0,83.71,12.881,118.608,37.24
	c29.275,20.441,52.498,47.652,67.93,79.409l47.374-47.374c0,0-0.267-11.014,0.452-19.026c-17.472-15.849-27.71-38.643-27.71-62.353
	c0-6.632,0.8-13.275,2.365-19.768c1.507-6.214,7.757-10.052,13.983-8.545c4.835,1.159,9.588,2.759,14.122,4.742
	c4.464,1.948,8.696,4.29,12.696,6.957c3.014-8.209,7.27-15.942,12.719-22.91c1.901-2.435,4.696-4,7.745-4.371
	c3.061-0.371,6.145,0.499,8.568,2.4c3.919,3.096,7.571,6.504,10.829,10.145c12.881,14.377,20.278,32.406,21.287,51.513
	c0.046,0.023,0.093,0.035,0.139,0.058c33.496,15.536,60.487,42.527,76.035,76.011c7.861,16.939,6.551,36.441-3.49,52.162
	c-8.742,13.716-22.91,22.585-38.771,24.603c2.632,3.896,4.742,8.162,6.249,12.742h22.446c-0.023-0.533-0.046-1.067-0.046-1.6
	c0-22.991,30.806-37.936,36.974-40.707c3.014-1.345,6.47-1.345,9.484,0C480.614,208.801,511.42,223.746,511.42,246.737z
	 M477.101,263.7c6.528-2.887,11.13-9.449,11.13-16.962c0-3.687-7.78-11.397-18.504-17.183
	c-10.052,5.484-18.551,13.159-18.551,17.183c0,0.58,0.046,1.148,0.093,1.716c8.104,0.638,15.641,4.093,21.472,9.901
	C474.388,260.001,475.837,261.798,477.101,263.7z M459.548,282.54c0-6.087-4.928-11.014-11.014-11.014h-52.185
	c-5.867,0-10.806-4.383-11.513-10.203c-1.67-13.925-13.519-24.8-27.548-25.299c0,0-0.754-0.023-1.055-0.023
	c-6.4,0-11.594-5.194-11.594-11.594c0-6.4,5.194-11.594,11.594-11.594c0.487,0,36.174,0.035,36.174,0.035
	c10.817,0,20.348-5.229,26.168-14.33c5.751-9.02,6.504-20.209,1.994-29.925c-13.241-28.522-36.232-51.501-64.742-64.73
	c-7.861-3.617-16.997-3.896-25.009-0.568c-2.956,1.229-6.296,1.171-9.206-0.139c-2.922-1.322-5.159-3.78-6.203-6.817
	c-2.759-8.023-7.061-15.27-12.8-21.53c-5.229-5.704-11.385-10.272-18.296-13.6c0,0.58-0.012,1.171-0.012,1.751
	c0.151,18.701,9.31,36.962,24.232,48.232c3.791,2.864,5.449,7.768,4.185,12.348c-0.765,2.771-1.159,5.623-1.159,8.487v16.754
	c0,3.072-1.217,6.017-3.397,8.197L199.908,265.23c-41.391,41.391-51.78,104.429-25.867,156.869c0.07,0.151,0.128,0.29,0.186,0.441
	c15.501,27.548,43.942,45.171,75.269,46.91c0.267-0.012,157.808,0.162,157.808,0.162c6.064,0,11.003-4.939,11.003-11.014
	s-4.939-11.014-11.003-11.014h-64.962c-4.301,0-8.255-2.377-10.261-6.18c-2.006-3.814-1.739-8.417,0.696-11.965
	c10.516-15.351,16.07-33.333,16.07-52.011c0-50.817-41.345-92.174-92.174-92.174c-6.4,0-11.594-5.183-11.594-11.594
	c0-6.4,5.194-11.594,11.594-11.594c30.643,0,58.539,12.023,79.223,31.583h112.637v-0.093
	C454.62,293.555,459.548,288.627,459.548,282.54z M341.6,77.729c-1.681-10.748-6.203-20.823-13.241-29.287
	c-2.307,4.765-3.965,9.809-4.962,15.014c3.768,4.707,7.003,9.751,9.67,15.119C335.896,78.065,338.748,77.787,341.6,77.729z
	 M183.513,248.836l40.011-40.011c-13.577-31.327-35.49-58.156-63.733-77.867c-30.98-21.635-67.409-33.067-105.333-33.067
	c-5.194,0-10.261,0.788-15.072,2.319c3.907,2.377,7.548,5.275,10.829,8.626c10.075,10.296,15.675,23.861,15.826,38.249
	c0.012,0.197,0.012,0.383,0.012,0.58v137.704c0,70.052,39.304,131.095,97.02,162.249c-6.052-8.846-10.064-15.652-10.272-16.209
	C123.061,370.25,135.34,297.01,183.513,248.836z"/>
<path style="fill:#FF7124;" d="M488.232,246.737c0,7.513-4.603,14.075-11.13,16.962c-1.264-1.901-2.713-3.699-4.359-5.345
	c-5.832-5.809-13.368-9.264-21.472-9.901c-0.046-0.568-0.093-1.136-0.093-1.716c0-4.023,8.499-11.699,18.551-17.183
	C480.452,235.34,488.232,243.051,488.232,246.737z"/>
<path style="fill:#F2D59F;" d="M448.533,271.526c6.087,0,11.014,4.928,11.014,11.014s-4.928,11.014-11.014,11.014v0.093H335.896
	c-20.684-19.559-48.58-31.583-79.223-31.583c-6.4,0-11.594,5.194-11.594,11.594c0,6.412,5.194,11.594,11.594,11.594
	c50.829,0,92.174,41.356,92.174,92.174c0,18.678-5.554,36.661-16.07,52.011c-2.435,3.548-2.701,8.151-0.696,11.965
	c2.006,3.803,5.959,6.18,10.261,6.18h64.962c6.064,0,11.003,4.939,11.003,11.014c0,6.075-4.939,11.014-11.003,11.014
	c0,0-157.542-0.174-157.808-0.162c-31.327-1.739-59.768-19.362-75.269-46.91c-0.058-0.151-0.116-0.29-0.186-0.441
	c-25.913-52.44-15.525-115.478,25.867-156.869l108.255-108.255c2.18-2.18,3.397-5.125,3.397-8.197v-16.754
	c0-2.864,0.394-5.716,1.159-8.487c1.264-4.58-0.394-9.484-4.185-12.348c-14.922-11.27-24.081-29.53-24.232-48.232
	c0-0.58,0.012-1.171,0.012-1.751c6.91,3.328,13.067,7.896,18.296,13.6c5.739,6.261,10.041,13.507,12.8,21.53
	c1.043,3.038,3.281,5.496,6.203,6.817c2.91,1.31,6.249,1.368,9.206,0.139c8.012-3.328,17.148-3.049,25.009,0.568
	c28.51,13.229,51.501,36.209,64.742,64.73c4.51,9.716,3.757,20.904-1.994,29.925c-5.82,9.101-15.351,14.33-26.168,14.33
	c0,0-35.687-0.035-36.174-0.035c-6.4,0-11.594,5.194-11.594,11.594s5.194,11.594,11.594,11.594c0.301,0,1.055,0.023,1.055,0.023
	c14.029,0.499,25.878,11.374,27.548,25.299c0.707,5.82,5.646,10.203,11.513,10.203L448.533,271.526L448.533,271.526z
	 M370.806,150.807c0-6.4-5.194-11.594-11.594-11.594s-11.594,5.194-11.594,11.594c0,6.4,5.194,11.594,11.594,11.594
	S370.806,157.207,370.806,150.807z M219.513,416.186c5.646-3.026,7.757-10.064,4.719-15.699
	c-12.487-23.235-12.997-51.246-1.38-74.945c2.817-5.751,0.441-12.696-5.299-15.525c-5.751-2.817-12.696-0.441-15.525,5.31
	c-14.899,30.4-14.238,66.342,1.785,96.139c2.087,3.896,6.087,6.099,10.226,6.099C215.884,417.566,217.774,417.125,219.513,416.186z"
	/>
<path style="fill:#5E2A41;" d="M359.212,139.213c6.4,0,11.594,5.194,11.594,11.594c0,6.4-5.194,11.594-11.594,11.594
	s-11.594-5.194-11.594-11.594C347.617,144.407,352.812,139.213,359.212,139.213z"/>
<path style="fill:#E6B263;" d="M328.359,48.442c7.038,8.464,11.559,18.539,13.241,29.287c-2.852,0.058-5.704,0.336-8.533,0.846
	c-2.667-5.368-5.901-10.412-9.67-15.119C324.394,58.251,326.052,53.207,328.359,48.442z"/>
<path style="fill:#5E2A41;" d="M224.232,400.488c3.038,5.635,0.928,12.672-4.719,15.699c-1.739,0.939-3.629,1.38-5.472,1.38
	c-4.139,0-8.139-2.203-10.226-6.099c-16.023-29.797-16.684-65.739-1.785-96.139c2.829-5.751,9.774-8.128,15.525-5.31
	c5.739,2.829,8.116,9.774,5.299,15.525C211.235,349.242,211.745,377.253,224.232,400.488z"/>
<path style="fill:#FF7124;" d="M223.525,208.825l-40.011,40.011C135.34,297.01,123.061,370.25,152.8,431.409
	c0.209,0.557,4.22,7.362,10.272,16.209c-57.716-31.154-97.02-92.197-97.02-162.249V147.665c0-0.197,0-0.383-0.012-0.58
	c-0.151-14.388-5.751-27.954-15.826-38.249c-3.281-3.351-6.922-6.249-10.829-8.626c4.812-1.53,9.878-2.319,15.072-2.319
	c37.925,0,74.353,11.432,105.333,33.067C188.035,150.668,209.948,177.497,223.525,208.825z"/>
<g>
</g>
<g>
</g>
<g>
</g>
<g>
</g>
<g>
</g>
<g>
</g>
<g>
</g>
<g>
</g>
<g>
</g>
<g>
</g>
<g>
</g>
<g>
</g>
<g>
</g>
<g>
</g>
<g>
</g>
</svg>
